<?xml version="1.0" encoding="UTF-8" standalone="no"?>
<svg
   xmlns:dc="http://purl.org/dc/elements/1.1/"
   xmlns:cc="http://creativecommons.org/ns#"
   xmlns:rdf="http://www.w3.org/1999/02/22-rdf-syntax-ns#"
   xmlns:svg="http://www.w3.org/2000/svg"
   xmlns="http://www.w3.org/2000/svg"
   xmlns:sodipodi="http://sodipodi.sourceforge.net/DTD/sodipodi-0.dtd"
   xmlns:inkscape="http://www.inkscape.org/namespaces/inkscape"
   width="512"
   height="602.00098"
   viewBox="0 0 135.46688 159.27913"
   version="1.1"
   id="svg8"
   inkscape:version="0.92.4 (5da689c313, 2019-01-14)"
   sodipodi:docname="favicon.svg"
   inkscape:export-filename="/home/ariel/Documents/designs/VeladConmigo/favicon/favicon.png"
   inkscape:export-xdpi="96"
   inkscape:export-ydpi="96">
  <defs
     id="defs2" />
  <sodipodi:namedview
     inkscape:guide-bbox="true"
     showguides="true"
     id="base"
     pagecolor="#ffffff"
     bordercolor="#666666"
     borderopacity="1.0"
     inkscape:pageopacity="0.0"
     inkscape:pageshadow="2"
     inkscape:zoom="0.5"
     inkscape:cx="546.36523"
     inkscape:cy="284.13763"
     inkscape:document-units="px"
     inkscape:current-layer="layer1"
     inkscape:document-rotation="0"
     showgrid="false"
     units="px"
     inkscape:showpageshadow="false"
     width="1121.5197px"
     inkscape:window-width="1920"
     inkscape:window-height="959"
     inkscape:window-x="0"
     inkscape:window-y="0"
     inkscape:window-maximized="1" />
  <metadata
     id="metadata5">
    <rdf:RDF>
      <cc:Work
         rdf:about="">
        <dc:format>image/svg+xml</dc:format>
        <dc:type
           rdf:resource="http://purl.org/dc/dcmitype/StillImage" />
        <dc:title></dc:title>
      </cc:Work>
    </rdf:RDF>
  </metadata>
  <g
     inkscape:label="Layer 1"
     inkscape:groupmode="layer"
     id="layer1"
     transform="translate(0,76.729578)">
    <g
       style="stroke-width:0.16545501"
       id="g1065"
       transform="matrix(6.0412264,0,0,6.0466052,-0.33090511,-76.729819)">
      <path
         sodipodi:nodetypes="cssc"
         inkscape:connector-curvature="0"
         id="path1322"
         d="m 11.26668,25.9918 c -3.8581628,0 -7.4232526,-2.051714 -9.3523339,-5.382277 -1.92908134,-3.330563 -1.92908134,-7.433985 0,-10.7645483 C 3.8434274,6.5144115 7.4085172,4.4626978 11.26668,4.4626978"
         style="fill:#ffffff;fill-opacity:1;stroke:#f6ad5f;stroke-width:0.70042986;stroke-linecap:butt;stroke-linejoin:miter;stroke-miterlimit:4;stroke-dasharray:none;stroke-opacity:1" />
      <path
         sodipodi:nodetypes="csccc"
         inkscape:connector-curvature="0"
         id="path1312"
         d="M 11.26668,25.872529 C 8.6403136,25.872487 6.1224396,25.040013 4.2711193,23.655221 2.4197991,22.270428 1.387946,20.393936 1.404265,18.441658 l 8.917565,0.741472 z"
         style="fill:#f6ad5f;fill-opacity:1;stroke:none;stroke-width:0.03491018;stroke-linecap:round;stroke-linejoin:miter;stroke-miterlimit:4;stroke-dasharray:none;stroke-opacity:1" />
      <path
         style="fill:#ffffff;fill-opacity:1;stroke:#dd6b2f;stroke-width:0.70042986;stroke-linecap:butt;stroke-linejoin:miter;stroke-miterlimit:4;stroke-dasharray:none;stroke-opacity:1"
         d="m 11.26668,25.9918 c 3.858162,0 7.423252,-2.051714 9.352329,-5.382277 1.929081,-3.330563 1.929081,-7.433985 0,-10.7645483 C 18.689932,6.5144115 15.124842,4.4626978 11.26668,4.4626978"
         id="path835"
         inkscape:connector-curvature="0"
         sodipodi:nodetypes="cssc" />
      <g
         transform="matrix(0.51109615,0,0,0.51109615,71.006598,-131.19781)"
         id="g857"
         style="stroke-width:0.0927922">
        <path
           style="fill:#464648;fill-opacity:1;stroke:none;stroke-width:0.1392829;stroke-linecap:round;stroke-linejoin:miter;stroke-miterlimit:4;stroke-dasharray:none;stroke-opacity:1"
           d="m -121.50325,269.67461 c 0.25615,-0.22043 1.72395,-0.52925 4.61738,-0.52925 v 23.18856 c -2.02562,-1.53843 -4.37314,-3.22601 -6.48061,-4.17551 l 0.12308,-1.11177 h 3.57266 v -1.09296 h -3.43755 l 0.27952,-2.24405 h 3.15803 v -1.22085 h -2.96783 l 0.29414,-2.35734 h 2.67369 v -1.22502 h -2.57307 l 0.24183,-2.3708 h 2.33124 v -1.13948 h -2.25177 l 0.19596,-2.47511 h 2.05417 l -0.0104,-0.99484 h -1.96432 z"
           id="rect836"
           inkscape:connector-curvature="0"
           sodipodi:nodetypes="ccccccccccccccccccccccccc" />
        <path
           sodipodi:nodetypes="ccccccccccccccccccccccccc"
           inkscape:connector-curvature="0"
           id="path1300"
           d="m -112.26849,269.67461 c -0.25615,-0.22043 -1.72395,-0.52925 -4.61738,-0.52925 v 23.18856 c 2.02562,-1.53843 4.37314,-3.22601 6.48061,-4.17551 l -0.12308,-1.11177 h -3.57266 v -1.09296 h 3.43755 l -0.27952,-2.24405 h -3.15803 v -1.22085 h 2.96783 l -0.29414,-2.35734 h -2.67369 v -1.22502 h 2.57307 l -0.24183,-2.3708 h -2.33124 v -1.13948 h 2.25177 l -0.19596,-2.47511 h -2.05417 l 0.0104,-0.99484 h 1.96432 z"
           style="fill:#121214;fill-opacity:1;stroke:none;stroke-width:0.1392829;stroke-linecap:round;stroke-linejoin:miter;stroke-miterlimit:4;stroke-dasharray:none;stroke-opacity:1" />
      </g>
      <path
         style="fill:#dd6b2f;fill-opacity:1;stroke:none;stroke-width:0.03491018;stroke-linecap:round;stroke-linejoin:miter;stroke-miterlimit:4;stroke-dasharray:none;stroke-opacity:1"
         d="m 11.26668,25.872529 c 2.626366,-4.2e-5 5.14424,-0.832516 6.99556,-2.217308 1.851319,-1.384793 2.883165,-3.261285 2.866847,-5.213563 l -8.917558,0.741472 z"
         id="path853"
         inkscape:connector-curvature="0"
         sodipodi:nodetypes="csccc" />
      <g
         transform="matrix(0.51109615,0,0,0.51109615,71.006598,-131.42764)"
         id="g851"
         style="stroke-width:0.0927922">
        <g
           id="g894"
           transform="translate(-142.75088,1.8785331)"
           style="stroke-width:0.0927922">
          <path
             sodipodi:nodetypes="cccc"
             inkscape:connector-curvature="0"
             id="path879"
             d="m 262.31841,-21.384791 c -2.78374,-0.009 -5.0964,-0.5575 -5.08644,-3.652917 l 5.09814,0.0164 z"
             style="fill:#464648;fill-opacity:1;stroke:none;stroke-width:0.15449961;stroke-linecap:round;stroke-linejoin:miter;stroke-miterlimit:4;stroke-dasharray:none;stroke-opacity:1"
             transform="rotate(89.815698)" />
          <path
             style="fill:#121214;fill-opacity:1;stroke:none;stroke-width:0.15449961;stroke-linecap:round;stroke-linejoin:miter;stroke-miterlimit:4;stroke-dasharray:none;stroke-opacity:1"
             d="m 29.501545,262.24827 c -4.5e-5,-2.78376 -0.541104,-5.09817 -3.636537,-5.09817 l 1e-6,5.09817 z"
             id="path890"
             inkscape:connector-curvature="0"
             sodipodi:nodetypes="cccc" />
        </g>
        <path
           style="fill:#464648;fill-opacity:1;stroke:none;stroke-width:0.12018123;stroke-linecap:round;stroke-linejoin:miter;stroke-miterlimit:4;stroke-dasharray:none;stroke-opacity:1"
           d="m -122.11279,263.4388 h 5.22679 v 0.68986 h -2.66269 l 0.0149,3.59554 2.64782,-0.006 -3e-5,0.86185 c -5.36808,0 -5.07538,0.97313 -5.07538,0.97313 0.11125,0.31489 0.0493,0.86855 -0.20629,1.02648 -0.63844,0.39449 -1.75333,-0.21793 -1.68676,-1.10916 0.0926,-1.23977 3.29537,-1.64614 3.29537,-1.64614 l 0.001,-3.69592 h -1.55506 c -0.2405,-0.079 -0.23978,-0.60855 0,-0.68959 z"
           id="rect896"
           inkscape:connector-curvature="0"
           sodipodi:nodetypes="cccccccsssccccc" />
        <g
           id="g920"
           transform="translate(-142.75088,1.8142538)"
           style="stroke-width:0.0927922">
          <path
             style="fill:#464648;fill-opacity:1;stroke:none;stroke-width:0.10326063;stroke-linecap:round;stroke-linejoin:miter;stroke-miterlimit:4;stroke-dasharray:none;stroke-opacity:1"
             d="m 25.398789,255.632 c -7.16e-4,-0.1385 0.218888,-0.29768 0.466219,-0.29769 v 1.95952 h -0.469142 z"
             id="rect898"
             inkscape:connector-curvature="0"
             sodipodi:nodetypes="ccccc" />
          <g
             transform="translate(0.469142,-9.275e-4)"
             id="g913"
             style="stroke-width:0.0927922">
            <path
               style="fill:#121214;fill-opacity:1;stroke:none;stroke-width:0.10326063;stroke-linecap:round;stroke-linejoin:miter;stroke-miterlimit:4;stroke-dasharray:none;stroke-opacity:1"
               d="m 25.862085,255.63293 c 7.16e-4,-0.1385 -0.218888,-0.29768 -0.466219,-0.29769 v 1.95952 h 0.469142 z"
               id="path908"
               inkscape:connector-curvature="0"
               sodipodi:nodetypes="ccccc" />
          </g>
        </g>
        <path
           sodipodi:nodetypes="cccccccsssccccc"
           inkscape:connector-curvature="0"
           id="path1298"
           d="m -111.65921,263.4388 h -5.22679 v 0.68986 h 2.66269 l -0.0149,3.59554 -2.64782,-0.006 3e-5,0.86185 c 5.36808,0 5.07538,0.97313 5.07538,0.97313 -0.11125,0.31489 -0.0493,0.86855 0.20629,1.02648 0.63844,0.39449 1.75333,-0.21793 1.68676,-1.10916 -0.0926,-1.23977 -3.29537,-1.64614 -3.29537,-1.64614 l -10e-4,-3.69592 h 1.55506 c 0.2405,-0.079 0.23978,-0.60855 0,-0.68959 z"
           style="fill:#121214;fill-opacity:1;stroke:none;stroke-width:0.12018123;stroke-linecap:round;stroke-linejoin:miter;stroke-miterlimit:4;stroke-dasharray:none;stroke-opacity:1" />
      </g>
      <g
         transform="matrix(0.5017613,0,0,0.49246677,69.915487,-125.958)"
         id="g863"
         style="stroke-width:0.09540647">
        <path
           sodipodi:nodetypes="ccccc"
           inkscape:connector-curvature="0"
           id="path834"
           d="m -139.23097,286.78562 c 4.41681,0.2309 12.12189,-0.62494 22.34511,8.26462 v 14.02138 c -3.29595,-8.11294 -9.54625,-13.87184 -20.16177,-12.73629 -0.86631,-1.72808 -2.18334,-5.26061 -2.18334,-9.54971 z"
           style="fill:#ffd69e;fill-opacity:1;stroke:none;stroke-width:0.15614043;stroke-linecap:round;stroke-linejoin:miter;stroke-miterlimit:4;stroke-dasharray:none;stroke-opacity:1" />
        <path
           style="fill:#464648;fill-opacity:1;stroke:none;stroke-width:0.15614042;stroke-linecap:round;stroke-linejoin:miter;stroke-miterlimit:4;stroke-dasharray:none;stroke-opacity:1"
           d="m -139.23097,286.78562 c 4.4168,0.2365 12.12186,-1.18228 22.3451,7.92353 v 14.36247 c -3.29598,-8.31029 -8.96801,-14.83596 -19.58354,-13.67278 -1.63426,-3.7271 -2.76156,-4.2198 -2.76156,-8.61322 z"
           id="path859"
           inkscape:connector-curvature="0"
           sodipodi:nodetypes="ccccc" />
      </g>
      <g
         transform="matrix(-0.50180834,0,0,0.49251293,-47.387625,-125.97228)"
         id="g869"
         style="stroke-width:0.09539717">
        <path
           style="fill:#faa069;fill-opacity:0.98999999;stroke:none;stroke-width:0.15612543;stroke-linecap:round;stroke-linejoin:miter;stroke-miterlimit:4;stroke-dasharray:none;stroke-opacity:1"
           d="m -139.22873,286.78772 c 4.41592,0.23085 12.11942,-0.62482 22.34055,8.26285 v 14.01841 c -3.29529,-8.11121 -9.54728,-13.87921 -20.16065,-12.74389 -0.86429,-1.77151 -2.1799,-5.2492 -2.1799,-9.53737 z"
           id="path865"
           inkscape:connector-curvature="0"
           sodipodi:nodetypes="ccccc" />
        <path
           sodipodi:nodetypes="ccccc"
           inkscape:connector-curvature="0"
           id="path867"
           d="m -139.22872,286.78772 c 4.41635,0.23648 12.12065,-1.18216 22.34286,7.92275 v 14.36107 c -3.29564,-8.30947 -8.96712,-14.83451 -19.58159,-13.67143 -1.63409,-3.72676 -2.76127,-4.2194 -2.76127,-8.61239 z"
           style="fill:#121214;fill-opacity:1;stroke:none;stroke-width:0.15612544;stroke-linecap:round;stroke-linejoin:miter;stroke-miterlimit:4;stroke-dasharray:none;stroke-opacity:1" />
      </g>
      <rect
         y="3.5675101"
         x="9.9057884"
         height="1.8368338"
         width="2.7184241"
         id="rect874"
         style="fill:#ffffff;fill-opacity:1;stroke:none;stroke-width:0.033932;stroke-linecap:round;stroke-linejoin:miter;stroke-miterlimit:4;stroke-dasharray:none;stroke-opacity:1" />
      <rect
         y="4.0532398"
         x="10.255635"
         height="0.91067296"
         width="1.011047"
         id="rect876"
         style="fill:#f7b268;fill-opacity:1;stroke:none;stroke-width:0.03274526;stroke-linecap:round;stroke-linejoin:miter;stroke-miterlimit:4;stroke-dasharray:none;stroke-opacity:1" />
      <rect
         style="fill:#dd6b2f;fill-opacity:1;stroke:none;stroke-width:0.03274526;stroke-linecap:round;stroke-linejoin:miter;stroke-miterlimit:4;stroke-dasharray:none;stroke-opacity:1"
         id="rect880"
         width="1.011047"
         height="0.91067296"
         x="11.266679"
         y="4.0532398" />
    </g>
  </g>
</svg>
