<?xml version="1.0" encoding="UTF-8" standalone="no"?>
<!-- Created with Inkscape (http://www.inkscape.org/) -->

<svg
   xmlns:dc="http://purl.org/dc/elements/1.1/"
   xmlns:cc="http://creativecommons.org/ns#"
   xmlns:rdf="http://www.w3.org/1999/02/22-rdf-syntax-ns#"
   xmlns:svg="http://www.w3.org/2000/svg"
   xmlns="http://www.w3.org/2000/svg"
   xmlns:sodipodi="http://sodipodi.sourceforge.net/DTD/sodipodi-0.dtd"
   xmlns:inkscape="http://www.inkscape.org/namespaces/inkscape"
   width="206"
   height="57"
   viewBox="0 0 54.504163 15.081259"
   version="1.1"
   id="svg8"
   inkscape:version="0.92.4 (5da689c313, 2019-01-14)"
   sodipodi:docname="vc.svg">
  <defs
     id="defs2" />
  <sodipodi:namedview
     id="base"
     pagecolor="#ffffff"
     bordercolor="#666666"
     borderopacity="1.0"
     inkscape:pageopacity="0.0"
     inkscape:pageshadow="2"
     inkscape:zoom="2.8284273"
     inkscape:cx="137.92081"
     inkscape:cy="4.0157595"
     inkscape:document-units="px"
     inkscape:current-layer="g953"
     showgrid="false"
     units="px"
     showguides="true"
     inkscape:guide-bbox="true"
     inkscape:window-width="1920"
     inkscape:window-height="972"
     inkscape:window-x="0"
     inkscape:window-y="0"
     inkscape:window-maximized="1" />
  <metadata
     id="metadata5">
    <rdf:RDF>
      <cc:Work
         rdf:about="">
        <dc:format>image/svg+xml</dc:format>
        <dc:type
           rdf:resource="http://purl.org/dc/dcmitype/StillImage" />
        <dc:title></dc:title>
      </cc:Work>
    </rdf:RDF>
  </metadata>
  <g
     inkscape:label="Capa 1"
     inkscape:groupmode="layer"
     id="layer1"
     transform="translate(0,-281.91826)">
    <g
       id="g953"
       transform="translate(152.31384,-28.414396)">
      <g
         id="g908"
         transform="matrix(0.28663761,0,0,0.28663761,-112.49133,236.78704)">
        <path
           transform="rotate(90)"
           style="fill:#ffffff;fill-opacity:1;stroke:#f6ad5f;stroke-width:1.82989514;stroke-linecap:butt;stroke-linejoin:miter;stroke-miterlimit:4;stroke-dasharray:none;stroke-opacity:0.96721311"
           d="m 308.16231,116.88587 c 0,7.5488 -4.01434,14.52418 -10.53085,18.29858 -6.51651,3.7744 -14.54518,3.7744 -21.06169,0 -6.51651,-3.7744 -10.53085,-10.74978 -10.53085,-18.29858"
           id="path1322"
           inkscape:connector-curvature="0"
           sodipodi:nodetypes="cssc" />
        <path
           style="fill:#f6ad5f;fill-opacity:0.98770495;stroke:none;stroke-width:0.73609781;stroke-linecap:round;stroke-linejoin:miter;stroke-miterlimit:4;stroke-dasharray:none;stroke-opacity:1"
           d="m -116.88587,307.58896 c -5.0551,-8e-5 -9.90138,-1.49891 -13.46471,-4.16429 -3.56333,-2.66538 -5.54939,-6.27716 -5.51798,-10.03481 l 17.16409,1.42715 z"
           id="path1312"
           inkscape:connector-curvature="0"
           sodipodi:nodetypes="csccc" />
        <path
           sodipodi:nodetypes="cssc"
           inkscape:connector-curvature="0"
           id="path835"
           d="m -116.88587,308.16231 c 7.5488,0 14.52418,-4.01434 18.298571,-10.53085 3.7744,-6.51651 3.7744,-14.54518 0,-21.06169 -3.774391,-6.51651 -10.749771,-10.53085 -18.298571,-10.53085"
           style="fill:#000000;fill-opacity:0;stroke:#dd6b2f;stroke-width:1.82989514;stroke-linecap:butt;stroke-linejoin:miter;stroke-miterlimit:4;stroke-dasharray:none;stroke-opacity:0.98360656" />
        <g
           id="g857"
           transform="translate(0,0.60841651)">
          <path
             sodipodi:nodetypes="ccccccccccccccccccccccccc"
             inkscape:connector-curvature="0"
             id="rect836"
             d="m -121.50325,269.67461 c 0.25615,-0.22043 1.72395,-0.52925 4.61738,-0.52925 v 23.18856 c -2.02562,-1.53843 -4.37314,-3.22601 -6.48061,-4.17551 l 0.12308,-1.11177 h 3.57266 v -1.09296 h -3.43755 l 0.27952,-2.24405 h 3.15803 v -1.22085 h -2.96783 l 0.29414,-2.35734 h 2.67369 v -1.22502 h -2.57307 l 0.24183,-2.3708 h 2.33124 v -1.13948 h -2.25177 l 0.19596,-2.47511 h 2.05417 l -0.0104,-0.99484 h -1.96432 z"
             style="fill:#464648;fill-opacity:1;stroke:none;stroke-width:1.50101984;stroke-linecap:round;stroke-linejoin:miter;stroke-miterlimit:4;stroke-dasharray:none;stroke-opacity:1" />
          <path
             style="fill:#121214;fill-opacity:1;stroke:none;stroke-width:1.50101984;stroke-linecap:round;stroke-linejoin:miter;stroke-miterlimit:4;stroke-dasharray:none;stroke-opacity:1"
             d="m -112.26849,269.67461 c -0.25615,-0.22043 -1.72395,-0.52925 -4.61738,-0.52925 v 23.18856 c 2.02562,-1.53843 4.37314,-3.22601 6.48061,-4.17551 l -0.12308,-1.11177 h -3.57266 v -1.09296 h 3.43755 l -0.27952,-2.24405 h -3.15803 v -1.22085 h 2.96783 l -0.29414,-2.35734 h -2.67369 v -1.22502 h 2.57307 l -0.24183,-2.3708 h -2.33124 v -1.13948 h 2.25177 l -0.19596,-2.47511 h -2.05417 l 0.0104,-0.99484 h 1.96432 z"
             id="path1300"
             inkscape:connector-curvature="0"
             sodipodi:nodetypes="ccccccccccccccccccccccccc" />
        </g>
        <path
           sodipodi:nodetypes="csccc"
           inkscape:connector-curvature="0"
           id="path853"
           d="m -116.88587,307.58896 c 5.0551,-8e-5 9.90138,-1.49891 13.46471,-4.16429 3.563327,-2.66538 5.549375,-6.27716 5.517965,-10.03481 l -17.164075,1.42715 z"
           style="fill:#dd6b2f;fill-opacity:0.99180328;stroke:none;stroke-width:0.73609781;stroke-linecap:round;stroke-linejoin:miter;stroke-miterlimit:4;stroke-dasharray:none;stroke-opacity:1" />
        <g
           id="g851"
           transform="translate(0,0.15874671)">
          <g
             transform="translate(-142.75088,1.8785331)"
             id="g894">
            <path
               transform="rotate(89.815698)"
               style="fill:#464648;fill-opacity:1;stroke:none;stroke-width:1.66499996;stroke-linecap:round;stroke-linejoin:miter;stroke-miterlimit:4;stroke-dasharray:none;stroke-opacity:1"
               d="m 262.31841,-21.384791 c -2.78374,-0.009 -5.0964,-0.5575 -5.08644,-3.652917 l 5.09814,0.0164 z"
               id="path879"
               inkscape:connector-curvature="0"
               sodipodi:nodetypes="cccc" />
            <path
               sodipodi:nodetypes="cccc"
               inkscape:connector-curvature="0"
               id="path890"
               d="m 29.501545,262.24827 c -4.5e-5,-2.78376 -0.541104,-5.09817 -3.636537,-5.09817 l 1e-6,5.09817 z"
               style="fill:#121214;fill-opacity:1;stroke:none;stroke-width:1.66499996;stroke-linecap:round;stroke-linejoin:miter;stroke-miterlimit:4;stroke-dasharray:none;stroke-opacity:1" />
          </g>
          <path
             sodipodi:nodetypes="cccccccsssccccc"
             inkscape:connector-curvature="0"
             id="rect896"
             d="m -122.11279,263.4388 h 5.22679 v 0.68986 h -2.66269 l 0.0149,3.59554 2.64782,-0.006 -3e-5,0.86185 c -5.36808,0 -5.07538,0.97313 -5.07538,0.97313 0.11125,0.31489 0.0493,0.86855 -0.20629,1.02648 -0.63844,0.39449 -1.75333,-0.21793 -1.68676,-1.10916 0.0926,-1.23977 3.29537,-1.64614 3.29537,-1.64614 l 0.001,-3.69592 h -1.55506 c -0.2405,-0.079 -0.23978,-0.60855 0,-0.68959 z"
             style="fill:#464648;fill-opacity:1;stroke:none;stroke-width:1.29515719;stroke-linecap:round;stroke-linejoin:miter;stroke-miterlimit:4;stroke-dasharray:none;stroke-opacity:1" />
          <g
             transform="translate(-142.75088,1.8142538)"
             id="g920">
            <path
               sodipodi:nodetypes="ccccc"
               inkscape:connector-curvature="0"
               id="rect898"
               d="m 25.398789,255.632 c -7.16e-4,-0.1385 0.218888,-0.29768 0.466219,-0.29769 v 1.95952 h -0.469142 z"
               style="fill:#464648;fill-opacity:1;stroke:none;stroke-width:1.1128242;stroke-linecap:round;stroke-linejoin:miter;stroke-miterlimit:4;stroke-dasharray:none;stroke-opacity:1" />
            <g
               id="g913"
               transform="translate(0.469142,-9.275e-4)">
              <path
                 sodipodi:nodetypes="ccccc"
                 inkscape:connector-curvature="0"
                 id="path908"
                 d="m 25.862085,255.63293 c 7.16e-4,-0.1385 -0.218888,-0.29768 -0.466219,-0.29769 v 1.95952 h 0.469142 z"
                 style="fill:#121214;fill-opacity:1;stroke:none;stroke-width:1.1128242;stroke-linecap:round;stroke-linejoin:miter;stroke-miterlimit:4;stroke-dasharray:none;stroke-opacity:1" />
            </g>
          </g>
          <path
             style="fill:#121214;fill-opacity:1;stroke:none;stroke-width:1.29515719;stroke-linecap:round;stroke-linejoin:miter;stroke-miterlimit:4;stroke-dasharray:none;stroke-opacity:1"
             d="m -111.65921,263.4388 h -5.22679 v 0.68986 h 2.66269 l -0.0149,3.59554 -2.64782,-0.006 3e-5,0.86185 c 5.36808,0 5.07538,0.97313 5.07538,0.97313 -0.11125,0.31489 -0.0493,0.86855 0.20629,1.02648 0.63844,0.39449 1.75333,-0.21793 1.68676,-1.10916 -0.0926,-1.23977 -3.29537,-1.64614 -3.29537,-1.64614 l -10e-4,-3.69592 h 1.55506 c 0.2405,-0.079 0.23978,-0.60855 0,-0.68959 z"
             id="path1298"
             inkscape:connector-curvature="0"
             sodipodi:nodetypes="cccccccsssccccc" />
        </g>
        <g
           id="g863">
          <path
             style="fill:#ffd69e;fill-opacity:1;stroke:none;stroke-width:1.63657629;stroke-linecap:round;stroke-linejoin:miter;stroke-miterlimit:4;stroke-dasharray:none;stroke-opacity:1"
             d="m -138.93002,286.79367 c 4.35732,0.23084 11.95862,-0.62483 22.04415,8.26295 v 14.01858 c -3.25157,-8.11131 -9.54297,-13.89022 -20.01552,-12.75489 -1.61224,-3.63787 -2.02863,-5.23841 -2.02863,-9.52664 z"
             id="path834"
             inkscape:connector-curvature="0"
             sodipodi:nodetypes="ccccc" />
          <path
             sodipodi:nodetypes="ccccc"
             inkscape:connector-curvature="0"
             id="path859"
             d="m -138.93002,286.79367 c 4.35732,0.23084 11.95862,-1.15397 22.04415,7.73381 v 14.01858 c -3.25157,-8.11131 -8.84723,-14.48072 -19.31978,-13.34539 -1.61224,-3.63787 -2.72437,-4.11877 -2.72437,-8.407 z"
             style="fill:#464648;fill-opacity:1;stroke:none;stroke-width:1.63657629;stroke-linecap:round;stroke-linejoin:miter;stroke-miterlimit:4;stroke-dasharray:none;stroke-opacity:1" />
        </g>
        <g
           id="g869"
           transform="matrix(-1,0,0,1,-233.77174,0)">
          <path
             sodipodi:nodetypes="ccccc"
             inkscape:connector-curvature="0"
             id="path865"
             d="m -138.93002,286.79367 c 4.35732,0.23084 11.95862,-0.62483 22.04415,8.26295 v 14.01858 c -3.25157,-8.11131 -9.54297,-13.89022 -20.01552,-12.75489 -1.61224,-3.63787 -2.02863,-5.23841 -2.02863,-9.52664 z"
             style="fill:#faa069;fill-opacity:0.94117647;stroke:none;stroke-width:1.63657629;stroke-linecap:round;stroke-linejoin:miter;stroke-miterlimit:4;stroke-dasharray:none;stroke-opacity:1" />
          <path
             style="fill:#121214;fill-opacity:1;stroke:none;stroke-width:1.63657629;stroke-linecap:round;stroke-linejoin:miter;stroke-miterlimit:4;stroke-dasharray:none;stroke-opacity:1"
             d="m -138.93002,286.79367 c 4.35732,0.23084 11.95862,-1.15397 22.04415,7.73381 v 14.01858 c -3.25157,-8.11131 -8.84723,-14.48072 -19.31978,-13.34539 -1.61224,-3.63787 -2.72437,-4.11877 -2.72437,-8.407 z"
             id="path867"
             inkscape:connector-curvature="0"
             sodipodi:nodetypes="ccccc" />
        </g>
        <rect
           style="fill:#ffffff;fill-opacity:1;stroke:none;stroke-width:0.71547824;stroke-linecap:round;stroke-linejoin:miter;stroke-miterlimit:4;stroke-dasharray:none;stroke-opacity:1"
           id="rect874"
           width="5.3188114"
           height="3.5939105"
           x="-119.54856"
           y="264.28741" />
        <rect
           style="fill:#f7b268;fill-opacity:1;stroke:none;stroke-width:0.69044822;stroke-linecap:round;stroke-linejoin:miter;stroke-miterlimit:4;stroke-dasharray:none;stroke-opacity:1"
           id="rect876"
           width="1.9781934"
           height="1.7818036"
           x="-118.86406"
           y="265.12183" />
        <rect
           y="265.12183"
           x="-116.88587"
           height="1.7818036"
           width="1.9781934"
           id="rect880"
           style="fill:#dd6b2f;fill-opacity:0.94117647;stroke:none;stroke-width:0.69044822;stroke-linecap:round;stroke-linejoin:miter;stroke-miterlimit:4;stroke-dasharray:none;stroke-opacity:1" />
      </g>
      <g
         id="text856"
         style="font-style:normal;font-variant:normal;font-weight:normal;font-stretch:normal;font-size:16.93333435px;line-height:1.25;font-family:Montserrat;-inkscape-font-specification:Montserrat;letter-spacing:0px;word-spacing:0px;fill:#121214;fill-opacity:1;stroke:none;stroke-width:0.26458335"
         aria-label="VELAD"
         transform="matrix(0.61347603,0,0,0.61347603,-71.242202,135.98751)">
        <path
           inkscape:connector-curvature="0"
           id="path845"
           style="font-style:normal;font-variant:normal;font-weight:900;font-stretch:normal;font-size:16.93333435px;font-family:Montserrat;-inkscape-font-specification:'Montserrat Heavy';letter-spacing:0px;fill:#dd6b2f;fill-opacity:0.99180328;stroke-width:0.26458335"
           d="m -91.890753,288.26828 -5.012267,11.85333 h -3.92853 l -5.01227,-11.85333 h 4.30107 l 2.827863,6.92573 2.8956,-6.92573 z" />
        <path
           inkscape:connector-curvature="0"
           id="path847"
           style="font-style:normal;font-variant:normal;font-weight:900;font-stretch:normal;font-size:16.93333435px;font-family:Montserrat;-inkscape-font-specification:'Montserrat Heavy';letter-spacing:0px;fill:#dd6b2f;fill-opacity:0.94117647;stroke-width:0.26458335"
           d="m -81.670956,297.10748 v 3.01413 h -9.855201 v -11.85333 h 9.635067 v 3.01413 h -5.706533 v 1.38854 h 5.012267 v 2.87866 h -5.012267 v 1.55787 z" />
        <path
           inkscape:connector-curvature="0"
           id="path849"
           style="font-style:normal;font-variant:normal;font-weight:900;font-stretch:normal;font-size:16.93333435px;font-family:Montserrat;-inkscape-font-specification:'Montserrat Heavy';letter-spacing:0px;fill:#dd6b2f;fill-opacity:0.94117647;stroke-width:0.26458335"
           d="m -80.116,288.26828 h 3.996267 v 8.75453 h 5.350934 v 3.0988 H -80.116 Z" />
        <path
           inkscape:connector-curvature="0"
           id="path851"
           style="font-style:normal;font-variant:normal;font-weight:900;font-stretch:normal;font-size:16.93333435px;font-family:Montserrat;-inkscape-font-specification:'Montserrat Heavy';letter-spacing:0px;fill:#dd6b2f;fill-opacity:0.94117647;stroke-width:0.26458335"
           d="m -61.422394,298.05575 h -4.504267 l -0.795866,2.06586 h -4.064001 l 5.181601,-11.85333 h 3.928533 l 5.181601,11.85333 h -4.131734 z m -1.100666,-2.87867 -1.151467,-2.98027 -1.151467,2.98027 z" />
        <path
           inkscape:connector-curvature="0"
           id="path854"
           style="font-style:normal;font-variant:normal;font-weight:900;font-stretch:normal;font-size:16.93333435px;font-family:Montserrat;-inkscape-font-specification:'Montserrat Heavy';letter-spacing:0px;fill:#dd6b2f;fill-opacity:0.94117647;stroke-width:0.26458335"
           d="m -55.840479,288.26828 h 5.842 q 1.9812,0 3.488267,0.72813 1.524,0.7112 2.353733,2.04894 0.846667,1.33773 0.846667,3.1496 0,1.81186 -0.846667,3.1496 -0.829733,1.33773 -2.353733,2.06586 -1.507067,0.7112 -3.488267,0.7112 h -5.842 z m 5.672667,8.7376 q 1.286933,0 2.048933,-0.72813 0.778934,-0.74507 0.778934,-2.0828 0,-1.33774 -0.778934,-2.06587 -0.762,-0.74507 -2.048933,-0.74507 h -1.6764 v 5.62187 z" />
      </g>
      <g
         id="text860"
         style="font-style:normal;font-variant:normal;font-weight:normal;font-stretch:normal;font-size:3.52777791px;line-height:1.25;font-family:Poppins;-inkscape-font-specification:Poppins;letter-spacing:0px;word-spacing:0px;fill:#464648;fill-opacity:1;stroke:none;stroke-width:0.26458335"
         aria-label="CONMIGO"
         transform="matrix(0.61347603,0,0,0.61347603,-71.242202,135.98751)">
        <path
           inkscape:connector-curvature="0"
           id="path857"
           style="font-style:normal;font-variant:normal;font-weight:300;font-stretch:normal;font-size:11.28888988px;line-height:1.25;font-family:Montserrat;-inkscape-font-specification:'Montserrat Light';letter-spacing:0.70643753px;word-spacing:0px;fill:#464648;fill-opacity:1;stroke-width:0.26458335"
           d="m -101.41291,308.77611 q -1.16276,0 -2.09974,-0.51929 -0.92568,-0.51929 -1.46755,-1.43369 -0.53058,-0.9144 -0.53058,-2.05458 0,-1.14017 0.53058,-2.05457 0.54187,-0.9144 1.46755,-1.43369 0.93698,-0.51929 2.09974,-0.51929 0.85795,0 1.580442,0.28222 0.722489,0.27093 1.230489,0.8128 l -0.361244,0.37253 q -0.948267,-0.93697 -2.427107,-0.93697 -0.99343,0 -1.80623,0.45155 -0.8128,0.45156 -1.27564,1.25307 -0.46285,0.79022 -0.46285,1.77235 0,0.98214 0.46285,1.78365 0.46284,0.79022 1.27564,1.24178 0.8128,0.45155 1.80623,0.45155 1.467551,0 2.427107,-0.94826 l 0.361244,0.37253 q -0.508,0.54187 -1.241777,0.82409 -0.722494,0.28222 -1.569154,0.28222 z" />
        <path
           inkscape:connector-curvature="0"
           id="path860"
           style="font-style:normal;font-variant:normal;font-weight:300;font-stretch:normal;font-size:11.28888988px;line-height:1.25;font-family:Montserrat;-inkscape-font-specification:'Montserrat Light';letter-spacing:0.70643753px;word-spacing:0px;fill:#464648;fill-opacity:1;stroke-width:0.26458335"
           d="m -92.779734,308.77611 q -1.162756,0 -2.099734,-0.51929 -0.936977,-0.53058 -1.478844,-1.44498 -0.530578,-0.9144 -0.530578,-2.04329 0,-1.12888 0.530578,-2.04329 0.541867,-0.9144 1.478844,-1.43368 0.936978,-0.53058 2.099734,-0.53058 1.162756,0 2.099733,0.51929 0.936978,0.51929 1.467556,1.43369 0.541867,0.9144 0.541867,2.05457 0,1.14018 -0.541867,2.05458 -0.530578,0.9144 -1.467556,1.43369 -0.936977,0.51929 -2.099733,0.51929 z m 0,-0.53058 q 0.993422,0 1.794933,-0.45155 0.801512,-0.45156 1.264356,-1.24178 0.462845,-0.80151 0.462845,-1.78365 0,-0.98213 -0.462845,-1.77235 -0.462844,-0.80151 -1.264356,-1.25307 -0.801511,-0.45155 -1.794933,-0.45155 -0.993422,0 -1.806222,0.45155 -0.801512,0.45156 -1.264356,1.25307 -0.462845,0.79022 -0.462845,1.77235 0,0.98214 0.462845,1.78365 0.462844,0.79022 1.264356,1.24178 0.8128,0.45155 1.806222,0.45155 z" />
        <path
           inkscape:connector-curvature="0"
           id="path862"
           style="font-style:normal;font-variant:normal;font-weight:300;font-stretch:normal;font-size:11.28888988px;line-height:1.25;font-family:Montserrat;-inkscape-font-specification:'Montserrat Light';letter-spacing:0.70643753px;word-spacing:0px;fill:#464648;fill-opacity:1;stroke-width:0.26458335"
           d="m -79.532574,300.81744 v 7.90223 h -0.474134 l -5.3848,-6.86365 v 6.86365 h -0.575734 v -7.90223 h 0.485423 l 5.373511,6.86365 v -6.86365 z" />
        <path
           inkscape:connector-curvature="0"
           id="path864"
           style="font-style:normal;font-variant:normal;font-weight:300;font-stretch:normal;font-size:11.28888988px;line-height:1.25;font-family:Montserrat;-inkscape-font-specification:'Montserrat Light';letter-spacing:0.70643753px;word-spacing:0px;fill:#464648;fill-opacity:1;stroke-width:0.26458335"
           d="m -68.593287,308.71967 -0.01129,-6.76205 -3.307645,5.71218 h -0.282222 l -3.307645,-5.6896 v 6.73947 h -0.564445 v -7.90223 h 0.485423 l 3.533422,6.10729 3.533423,-6.10729 h 0.474133 l 0.01129,7.90223 z" />
        <path
           inkscape:connector-curvature="0"
           id="path866"
           style="font-style:normal;font-variant:normal;font-weight:300;font-stretch:normal;font-size:11.28888988px;line-height:1.25;font-family:Montserrat;-inkscape-font-specification:'Montserrat Light';letter-spacing:0.70643753px;word-spacing:0px;fill:#464648;fill-opacity:1;stroke-width:0.26458335"
           d="m -64.578322,300.81744 h 0.575734 v 7.90223 h -0.575734 z" />
        <path
           inkscape:connector-curvature="0"
           id="path868"
           style="font-style:normal;font-variant:normal;font-weight:300;font-stretch:normal;font-size:11.28888988px;line-height:1.25;font-family:Montserrat;-inkscape-font-specification:'Montserrat Light';letter-spacing:0.70643753px;word-spacing:0px;fill:#464648;fill-opacity:1;stroke-width:0.26458335"
           d="m -54.898099,304.80242 h 0.553156 v 2.95769 q -0.519289,0.49671 -1.264356,0.75636 -0.733778,0.25964 -1.557867,0.25964 -1.174044,0 -2.122311,-0.51929 -0.936978,-0.51929 -1.478845,-1.43369 -0.530577,-0.9144 -0.530577,-2.05458 0,-1.14017 0.530577,-2.05457 0.541867,-0.9144 1.478845,-1.43369 0.948267,-0.51929 2.1336,-0.51929 0.869245,0 1.591734,0.28222 0.733777,0.27093 1.253066,0.80151 l -0.361244,0.38382 q -0.496711,-0.49671 -1.1176,-0.7112 -0.6096,-0.22577 -1.354667,-0.22577 -1.016,0 -1.840089,0.45155 -0.8128,0.45156 -1.275645,1.25307 -0.462844,0.79022 -0.462844,1.77235 0,0.97085 0.462844,1.77236 0.474134,0.79022 1.286934,1.25307 0.8128,0.45155 1.8288,0.45155 1.354667,0 2.246489,-0.72249 z" />
        <path
           inkscape:connector-curvature="0"
           id="path870"
           style="font-style:normal;font-variant:normal;font-weight:300;font-stretch:normal;font-size:11.28888988px;line-height:1.25;font-family:Montserrat;-inkscape-font-specification:'Montserrat Light';letter-spacing:0.70643753px;word-spacing:0px;fill:#464648;fill-opacity:1;stroke-width:0.26458335"
           d="m -47.752057,308.77611 q -1.162755,0 -2.099733,-0.51929 -0.936978,-0.53058 -1.478845,-1.44498 -0.530577,-0.9144 -0.530577,-2.04329 0,-1.12888 0.530577,-2.04329 0.541867,-0.9144 1.478845,-1.43368 0.936978,-0.53058 2.099733,-0.53058 1.162756,0 2.099734,0.51929 0.936978,0.51929 1.467556,1.43369 0.541866,0.9144 0.541866,2.05457 0,1.14018 -0.541866,2.05458 -0.530578,0.9144 -1.467556,1.43369 -0.936978,0.51929 -2.099734,0.51929 z m 0,-0.53058 q 0.993423,0 1.794934,-0.45155 0.801511,-0.45156 1.264356,-1.24178 0.462844,-0.80151 0.462844,-1.78365 0,-0.98213 -0.462844,-1.77235 -0.462845,-0.80151 -1.264356,-1.25307 -0.801511,-0.45155 -1.794934,-0.45155 -0.993422,0 -1.806222,0.45155 -0.801511,0.45156 -1.264356,1.25307 -0.462844,0.79022 -0.462844,1.77235 0,0.98214 0.462844,1.78365 0.462845,0.79022 1.264356,1.24178 0.8128,0.45155 1.806222,0.45155 z" />
      </g>
    </g>
  </g>
</svg>
