<?xml version="1.0" standalone="no"?>
<!DOCTYPE svg PUBLIC "-//W3C//DTD SVG 20010904//EN"
 "http://www.w3.org/TR/2001/REC-SVG-20010904/DTD/svg10.dtd">
<svg version="1.0" xmlns="http://www.w3.org/2000/svg"
 width="312.000000pt" height="312.000000pt" viewBox="0 0 312.000000 312.000000"
 preserveAspectRatio="xMidYMid meet">
<metadata>
Created by potrace 1.11, written by Peter Selinger 2001-2013
</metadata>
<g transform="translate(0.000000,312.000000) scale(0.100000,-0.100000)"
fill="#000000" stroke="none">
<path d="M1544 3108 c-4 -6 -7 -32 -8 -58 0 -34 -4 -46 -15 -48 -38 -4 -51 -9
-84 -32 -20 -14 -41 -34 -47 -45 -22 -43 -40 -109 -40 -146 l0 -39 -55 0 c-48
0 -55 -2 -55 -20 0 -17 7 -20 49 -20 40 0 50 -3 54 -20 11 -42 -2 -56 -66 -70
-530 -115 -949 -568 -1024 -1106 -15 -108 -9 -351 11 -444 85 -396 342 -730
702 -915 113 -58 274 -110 395 -128 88 -13 329 -15 405 -3 476 77 887 415
1048 865 50 140 69 245 72 406 1 83 -1 170 -6 195 -4 25 -11 63 -14 84 -27
169 -122 389 -236 541 -192 257 -477 441 -782 506 -50 10 -57 15 -60 39 -7 43
0 50 53 50 42 0 49 3 49 20 0 18 -7 20 -54 20 -46 0 -55 3 -54 18 1 67 -25
147 -60 188 -20 24 -64 48 -103 57 -24 6 -27 12 -27 52 -1 25 -4 50 -7 55 -8
14 -32 12 -41 -2z"/>
</g>
</svg>
